<svg xmlns="http://www.w3.org/2000/svg" width="102" height="48" fill="none"><g><title>Layer 1</title><path id="svg_1" fill="#0E4174" d="m3.58932,20.9141l5.58533,0l0,21.6932c0,0.9655 0.24513,1.6353 0.72662,2.0093c0.48153,0.374 1.33943,0.5654 2.55633,0.5654l0.0525,0l0,2.2963l-12.5101,0l0,-2.2963l0.37644,0c1.18185,0 2.01352,-0.1914 2.49502,-0.5654c0.49025,-0.374 0.72662,-1.1134 0.72662,-2.2268l0,-21.4757l-0.00876,0z"></path><path id="svg_2" fill="#0E4174" d="m6.15959,10.7812c1.00816,0 1.85852,0.3515 2.55109,1.0543c0.70133,0.7028 1.04323,1.5628 1.04323,2.5985c0,1.0357 -0.35067,1.8402 -1.04323,2.543c-0.69257,0.7028 -1.5517,1.0542 -2.55109,1.0542c-0.9994,0 -1.86729,-0.3514 -2.58616,-1.0542c-0.71886,-0.712 -1.06952,-1.5535 -1.06952,-2.543c0,-0.9895 0.35943,-1.8865 1.06952,-2.5985c0.71887,-0.7121 1.578,-1.0543 2.58616,-1.0543z"></path><path id="svg_3" fill="#0E4174" d="m15.5832,3.51172c0.8054,0 1.4882,0.28923 2.0397,0.85837c0.5516,0.56914 0.8405,1.25957 0.8405,2.08995c0,0.83039 -0.2802,1.4835 -0.8405,2.05264c-0.5602,0.56913 -1.2431,0.84904 -2.0397,0.84904c-0.7967,0 -1.4883,-0.27991 -2.0661,-0.84904c-0.569,-0.56914 -0.8579,-1.25024 -0.8579,-2.05264c0,-0.80239 0.2889,-1.53014 0.8579,-2.08995c0.5778,-0.57847 1.2607,-0.85837 2.0661,-0.85837z"></path><path id="svg_4" fill="#0E4174" d="m38.5021,3.51172c0.7967,0 1.4883,0.28923 2.0398,0.85837c0.5603,0.56914 0.8404,1.25957 0.8404,2.08995c0,0.83039 -0.2801,1.4835 -0.8404,2.05264c-0.5515,0.56913 -1.2431,0.84904 -2.0398,0.84904c-0.7966,0 -1.4882,-0.27991 -2.066,-0.84904c-0.5691,-0.56914 -0.858,-1.25024 -0.858,-2.05264c0,-0.80239 0.2889,-1.53014 0.858,-2.08995c0.5778,-0.57847 1.2606,-0.85837 2.066,-0.85837z"></path><path id="svg_5" fill="#0E4174" d="m26.9552,0.51953c0.609,0 1.111,0.20876 1.5389,0.63497c0.4197,0.42621 0.6337,0.9394 0.6337,1.56567c0,0.62627 -0.214,1.10467 -0.6337,1.53088c-0.4197,0.42621 -0.9299,0.63496 -1.5389,0.63496c-0.609,0 -1.1193,-0.21745 -1.5555,-0.63496c-0.4279,-0.42621 -0.6419,-0.93071 -0.6419,-1.53088c0,-0.60018 0.214,-1.13946 0.6419,-1.56567c0.428,-0.42621 0.9465,-0.63497 1.5555,-0.63497l0,0z"></path><path id="svg_6" fill="#0E4174" d="m20.7743,47.4704l-8.9208,0l0,-2.2963l0.5953,0c1.8297,0 2.7402,-0.8698 2.7402,-2.6268l0,-21.6324l5.5853,0l0,4.8188c2.2411,-3.7837 5.3402,-5.6712 9.2885,-5.6712c3.0377,0 5.4365,0.9655 7.1961,2.8965c1.7596,1.9223 2.6351,4.3665 2.6351,7.3326l0,12.2557c0,1.7483 0.9105,2.6268 2.7401,2.6268l0.5866,0l0,2.2963l-8.912,0l0,-18.1443c0,-1.818 -0.5341,-3.2619 -1.5933,-4.3143c-1.0681,-1.0525 -2.4863,-1.5831 -4.2547,-1.5831c-2.1711,0 -3.9745,0.8089 -5.419,2.4094c-1.5145,1.7135 -2.2762,4.0098 -2.2762,6.9063l0,14.7173l0.0088,0.0087z"></path><path id="svg_7" fill="#0E4174" d="m44.8755,20.9141l5.5853,0l0,21.6932c0,0.9655 0.2364,1.6353 0.7266,2.0093c0.4815,0.374 1.3394,0.5654 2.5563,0.5654l0.0525,0l0,2.2963l-12.5101,0l0,-2.2963l0.3677,0c1.1819,0 2.0135,-0.1914 2.495,-0.5654c0.4815,-0.374 0.7179,-1.1134 0.7179,-2.2268l0,-21.4757l0.0088,0z"></path><path id="svg_8" fill="#0E4174" d="m47.4325,10.7812c1.007,0 1.8563,0.3515 2.5568,1.0543c0.6917,0.7028 1.0419,1.5628 1.0419,2.5985c0,1.0357 -0.3502,1.8402 -1.0419,2.543c-0.7005,0.7028 -1.5498,1.0542 -2.5568,1.0542c-1.0069,0 -1.865,-0.3514 -2.5743,-1.0542c-0.718,-0.712 -1.077,-1.5535 -1.077,-2.543c0,-0.9895 0.359,-1.8865 1.077,-2.5985c0.718,-0.7121 1.5761,-1.0543 2.5743,-1.0543z"></path><path id="svg_9" fill="#0E4174" d="m92.4034,28.7433c0,-1.6092 -0.4728,-2.8878 -1.427,-3.8533c-0.9543,-0.9655 -2.2762,-1.4526 -3.9658,-1.4526c-1.9084,0 -3.528,0.635 -4.8587,1.9049c-1.3307,1.2699 -1.996,2.8791 -1.996,4.8449l0,17.2832l-8.7369,0l0,-2.2963l0.3764,0c1.8559,0 2.7839,-0.8698 2.7839,-2.6268l0,-13.2212c0,-1.818 -0.534,-3.2619 -1.5933,-4.3143c-1.0593,-1.0525 -2.4775,-1.5831 -4.2371,-1.5831c-1.6196,0 -3.0641,0.8089 -4.316,2.4094c-1.4007,1.8266 -2.1098,4.1229 -2.1098,6.9063l0,14.7173l-9.1747,0l0,-2.2963l0.3152,0c1.2169,0 2.066,-0.1913 2.5475,-0.5827c0.4815,-0.3915 0.7267,-1.0699 0.7267,-2.0354l0,-21.6324l5.5765,0l0,4.8188l0.1138,0c2.2237,-3.7837 5.1389,-5.6712 8.7282,-5.6712c2.1536,0 4.0096,0.548 5.5503,1.6614c1.4358,1.035 2.39,2.4006 2.8627,4.1229c2.5126,-3.8533 5.6729,-5.7756 9.4811,-5.7756c2.1886,0 4.1846,0.8176 5.9793,2.4616c1.9785,1.8179 2.9677,4.0707 2.9677,6.7411l0,13.2821c0,1.7483 0.928,2.6268 2.7926,2.6268l0.219,0l0,2.2963l-8.5969,0l0,-18.7271l-0.0087,-0.0087z"></path></g></svg>